<svg width="42" height="42" viewBox="0 0 42 42" fill="none" xmlns="http://www.w3.org/2000/svg">
<path d="M30.1875 2.97938C29.7885 2.74898 29.3358 2.62769 28.875 2.62769C28.4142 2.62769 27.9615 2.74898 27.5625 2.97938L9.80175 13.125H5.25C4.55381 13.125 3.88613 13.4016 3.39384 13.8938C2.90156 14.3861 2.625 15.0538 2.625 15.75V26.25C2.625 26.9462 2.90156 27.6139 3.39384 28.1062C3.88613 28.5984 4.55381 28.875 5.25 28.875H9.80175L27.573 39.0285C27.9722 39.2565 28.4242 39.3757 28.8839 39.3741C29.3436 39.3726 29.7948 39.2503 30.1924 39.0196C30.59 38.789 30.92 38.4579 31.1495 38.0596C31.379 37.6613 31.4999 37.2097 31.5 36.75V5.25C31.4995 4.78967 31.378 4.33756 31.1476 3.93903C30.9173 3.54049 30.5862 3.20954 30.1875 2.97938Z" fill="#C9E5DF"/>
<path d="M34.125 11.9595V30.0405C35.7199 29.1307 37.0457 27.8151 37.9678 26.2274C38.89 24.6396 39.3758 22.8361 39.3758 21C39.3758 19.1639 38.89 17.3604 37.9678 15.7726C37.0457 14.1849 35.7199 12.8693 34.125 11.9595Z" fill="#C9E5DF"/>
</svg>
