<svg viewBox="0 0 95 95" fill="none" xmlns="http://www.w3.org/2000/svg">
<g clip-path="url(#clip0_918_154)">
<path d="M47.5 0C21.2637 0 0 21.2637 0 47.5C0 73.7363 21.2637 95 47.5 95C73.7363 95 95 73.7363 95 47.5C95 21.2637 73.7363 0 47.5 0ZM69.1162 51.3037L42.3975 67.6318C41.6924 68.0586 40.876 68.2812 40.0781 68.2812C37.538 68.2812 35.625 66.2031 35.625 63.8281V31.1719C35.625 28.8154 37.5176 26.7188 40.0781 26.7188C40.8841 26.7188 41.6883 26.937 42.3993 27.3711L69.1181 43.6993C70.4336 44.5127 71.25 45.9414 71.25 47.5C71.25 49.0586 70.4336 50.4873 69.1162 51.3037Z" fill="#C9E5DF"/>
</g>
<defs>
<clipPath id="clip0_918_154">
<rect width="95" height="95" fill="white"/>
</clipPath>
</defs>
</svg>
