<svg viewBox="0 0 42 42" fill="none" xmlns="http://www.w3.org/2000/svg">
<path d="M5.25 28.875H5.7225L30.9356 3.675C30.7356 3.40056 30.4831 3.16858 30.1927 2.9925C29.7937 2.76211 29.341 2.64082 28.8802 2.64082C28.4195 2.64082 27.9668 2.76211 27.5677 2.9925L9.80175 13.125H5.25C4.55381 13.125 3.88613 13.4016 3.39384 13.8938C2.90156 14.3861 2.625 15.0538 2.625 15.75V26.25C2.625 26.9462 2.90156 27.6139 3.39384 28.1062C3.88613 28.5984 4.55381 28.875 5.25 28.875Z" fill="#C9E5DF"/>
<path d="M16.627 32.7757L27.5732 39.0285C27.9724 39.2565 28.4244 39.3757 28.8841 39.3741C29.3438 39.3726 29.795 39.2503 30.1926 39.0196C30.5902 38.789 30.9202 38.4579 31.1497 38.0596C31.3792 37.6613 31.5001 37.2097 31.5002 36.75V17.9025L16.627 32.7757Z" fill="#C9E5DF"/>
<path d="M5.24993 39.375C4.73083 39.3749 4.22343 39.2209 3.79185 38.9324C3.36027 38.644 3.02391 38.2341 2.82527 37.7545C2.62664 37.2749 2.57466 36.7472 2.6759 36.238C2.77714 35.7289 3.02705 35.2612 3.39405 34.8941L34.8941 3.39413C35.3891 2.91596 36.0522 2.65138 36.7405 2.65736C37.4288 2.66334 38.0871 2.93941 38.5738 3.4261C39.0605 3.9128 39.3366 4.57118 39.3426 5.25945C39.3486 5.94771 39.084 6.6108 38.6058 7.10588L7.1058 38.6059C6.61364 39.0982 5.94607 39.3749 5.24993 39.375Z" fill="#C9E5DF"/>
<path d="M39.375 21C39.3692 22.8335 38.881 24.6331 37.9595 26.2182C37.0379 27.8033 35.7155 29.1179 34.125 30.03V15.2775L36.015 13.3875C37.0717 14.3545 37.916 15.5305 38.4943 16.8409C39.0727 18.1514 39.3726 19.5676 39.375 21Z" fill="#C9E5DF"/>
</svg>
