<svg viewBox="0 0 95 95" fill="none" xmlns="http://www.w3.org/2000/svg">
<g clip-path="url(#clip0_741_2300)">
<path d="M47.5 0C21.2637 0 0 21.2637 0 47.5C0 73.7363 21.2637 95 47.5 95C73.7363 95 95 73.7363 95 47.5C95 21.2637 73.7363 0 47.5 0ZM41.5625 35.458V59.208C41.5625 62.6592 38.9092 65.3125 35.625 65.3125C32.3408 65.3125 29.6875 62.6592 29.6875 59.375V35.458C29.6875 32.3408 32.3408 29.6875 35.458 29.6875C38.5752 29.6875 41.5625 32.3408 41.5625 35.458ZM65.3125 35.458V59.208C65.3125 62.6592 62.6592 65.3125 59.375 65.3125C56.0908 65.3125 53.4375 62.6592 53.4375 59.375V35.458C53.4375 32.3408 56.0908 29.6875 59.208 29.6875C62.3252 29.6875 65.3125 32.3408 65.3125 35.458Z" fill="#C9E5DF"/>
</g>
<defs>
<clipPath id="clip0_741_2300">
<rect width="95" height="95" fill="white"/>
</clipPath>
</defs>
</svg>
